# xmcd
#
# Track frame offsets: 
#        150
#        23705
#        45790
#        66760
#        89295
#        111935
#        133872
#        157650
#        174360
#        196070
#
# Disc length: 2938 seconds
#
# Revision: 2
# Processed by: cddbd v1.5.1PL0 Copyright (c) Steve Scherf et al.
# Submitted via: ExactAudioCopy v0.95a5
#
DISCID=700b780a
DTITLE=Robert Cray - Time will tell
DYEAR=2003
DGENRE=Blues
TTITLE0=Survivor
TTITLE1=Up in the sky
TTITLE2=Back door slam
TTITLE3=I didn't know
TTITLE4=Your pal
TTITLE5=Lotta lovin'
TTITLE6=What you need (Good man)
TTITLE7=Spare some love?
TTITLE8=Distant shore
TTITLE9=Time makes two
EXTD=YEAR: 2003
EXTT0=
EXTT1=
EXTT2=
EXTT3=
EXTT4=
EXTT5=
EXTT6=
EXTT7=
EXTT8=
EXTT9=
PLAYORDER=
